<svg id="visual" viewBox="0 0 900 600" width="900" height="600" xmlns="http://www.w3.org/2000/svg" xmlns:xlink="http://www.w3.org/1999/xlink" version="1.1"><rect x="0" y="0" width="900" height="600" fill="#e0e0e0"></rect><path d="M0 266L90 266L90 251L180 251L180 304L270 304L270 282L360 282L360 310L450 310L450 216L540 216L540 251L630 251L630 208L720 208L720 323L810 323L810 297L900 297L900 228L900 601L900 601L810 601L810 601L720 601L720 601L630 601L630 601L540 601L540 601L450 601L450 601L360 601L360 601L270 601L270 601L180 601L180 601L90 601L90 601L0 601Z" fill="#0696ff"></path><path d="M0 365L90 365L90 315L180 315L180 357L270 357L270 365L360 365L360 331L450 331L450 329L540 329L540 304L630 304L630 327L720 327L720 364L810 364L810 296L900 296L900 296L900 601L900 601L810 601L810 601L720 601L720 601L630 601L630 601L540 601L540 601L450 601L450 601L360 601L360 601L270 601L270 601L180 601L180 601L90 601L90 601L0 601Z" fill="#2d68cd"></path><path d="M0 460L90 460L90 429L180 429L180 406L270 406L270 402L360 402L360 395L450 395L450 414L540 414L540 463L630 463L630 430L720 430L720 394L810 394L810 442L900 442L900 410L900 601L900 601L810 601L810 601L720 601L720 601L630 601L630 601L540 601L540 601L450 601L450 601L360 601L360 601L270 601L270 601L180 601L180 601L90 601L90 601L0 601Z" fill="#343b99"></path><path d="M0 509L90 509L90 535L180 535L180 480L270 480L270 490L360 490L360 511L450 511L450 511L540 511L540 474L630 474L630 492L720 492L720 530L810 530L810 482L900 482L900 524L900 601L900 601L810 601L810 601L720 601L720 601L630 601L630 601L540 601L540 601L450 601L450 601L360 601L360 601L270 601L270 601L180 601L180 601L90 601L90 601L0 601Z" fill="#2e0a65"></path></svg>
